<svg id="visual" viewBox="0 0 900 600" width="900" height="600" xmlns="http://www.w3.org/2000/svg" xmlns:xlink="http://www.w3.org/1999/xlink" version="1.1"><rect x="0" y="0" width="900" height="600" fill="#F2B274"></rect><path d="M0 429L15 435.3C30 441.7 60 454.3 90 453.2C120 452 150 437 180 422.2C210 407.3 240 392.7 270 403.7C300 414.7 330 451.3 360 458.5C390 465.7 420 443.3 450 423C480 402.7 510 384.3 540 394.7C570 405 600 444 630 461.2C660 478.3 690 473.7 720 457.2C750 440.7 780 412.3 810 408.3C840 404.3 870 424.7 885 434.8L900 445L900 601L885 601C870 601 840 601 810 601C780 601 750 601 720 601C690 601 660 601 630 601C600 601 570 601 540 601C510 601 480 601 450 601C420 601 390 601 360 601C330 601 300 601 270 601C240 601 210 601 180 601C150 601 120 601 90 601C60 601 30 601 15 601L0 601Z" fill="#FE496A" stroke-linecap="round" stroke-linejoin="miter"></path></svg>